<svg width="102" height="75" viewBox="0 0 102 75" fill="none" xmlns="http://www.w3.org/2000/svg">
<path d="M16.3271 57.9842C17.5238 57.9842 14.4291 57.304 11.9436 59.7109C9.45817 62.1177 10.6758 65.3542 11.7114 66.3571C10.6758 66.0706 7.75657 65.1523 5.94148 67.1937C4.27368 69.0694 5.69881 72.1086 6.58648 73.2547" stroke="#F5F5F5" stroke-width="2" stroke-linecap="round" stroke-linejoin="round"/>
<path d="M17.5232 73.526V13.0877L39.0575 1M39.0575 1L60.5918 10.7853V22.2973M39.0575 1V73.526M52.2174 73.526V26.9021L68.9663 17.6925M68.9663 17.6925L85.7152 25.1753V60.2871M68.9663 17.6925V62.5895" stroke="#EA4C14" stroke-width="2" stroke-linecap="round" stroke-linejoin="round"/>
<path d="M17.5229 60.862L39.0573 58.5596L52.2171 59.7108M52.2171 63.74L68.9661 62.5888" stroke="#EA4C14" stroke-width="2" stroke-linecap="round" stroke-linejoin="round"/>
<path d="M65.5908 73.696C64.3945 72.7367 62.4803 69.2673 64.3945 66.0439C66.3086 62.8205 69.9774 63.1659 71.5725 63.7415C70.5755 60.8635 70.2565 55.1074 76.9561 55.1074C83.6556 55.1074 84.533 60.8635 84.1342 63.7415C84.3336 62.2065 86.5269 60.2878 89.5178 61.4391C92.0015 62.3951 91.5117 65.4683 91.3123 66.6195C92.1098 66.2357 95.978 65.4683 96.6959 68.9219C97.1744 71.2243 95.6989 72.9286 95.4995 73.696H65.5908Z" stroke="#F5F5F5" stroke-width="2" stroke-linecap="round" stroke-linejoin="round"/>
<path d="M1 74H100.071" stroke="white" stroke-width="2" stroke-linecap="round"/>
</svg>
