<svg width="41" height="16" viewBox="0 0 41 16" fill="none" xmlns="http://www.w3.org/2000/svg">
<path d="M4.16117 12.394L5.85797 0.859841H7.89817L5.71657 14.9998H2.40377L0.222168 0.859841H2.46437L4.16117 12.394Z" fill="#E74214"/>
<path d="M8.53131 0.859841H10.7533V14.9998H8.53131V0.859841Z" fill="#E74214"/>
<path d="M11.6912 4.25344C11.6912 3.10878 11.9605 2.23344 12.4992 1.62744C13.0513 1.00798 13.8728 0.698242 14.9636 0.698242C16.0544 0.698242 16.8691 1.00798 17.4078 1.62744C17.9599 2.23344 18.236 3.10878 18.236 4.25344V4.69784H16.1352V4.11204C16.1352 3.60031 16.0342 3.24344 15.8322 3.04144C15.6437 2.82598 15.3743 2.71824 15.0242 2.71824C14.6741 2.71824 14.398 2.82598 14.196 3.04144C14.0075 3.24344 13.9132 3.60031 13.9132 4.11204C13.9132 4.59684 14.0209 5.02778 14.2364 5.40484C14.4519 5.76844 14.7212 6.11858 15.0444 6.45524C15.3676 6.77844 15.711 7.10838 16.0746 7.44504C16.4517 7.76824 16.8018 8.12511 17.125 8.51564C17.4482 8.90618 17.7175 9.35057 17.933 9.84884C18.1485 10.3471 18.2562 10.9329 18.2562 11.6062C18.2562 12.7509 17.9734 13.633 17.4078 14.2524C16.8557 14.8584 16.0342 15.1614 14.9434 15.1614C13.8526 15.1614 13.0244 14.8584 12.4588 14.2524C11.9067 13.633 11.6306 12.7509 11.6306 11.6062V10.7376H13.7314V11.7476C13.7314 12.2594 13.8324 12.6162 14.0344 12.8182C14.2499 13.0202 14.5327 13.1212 14.8828 13.1212C15.2329 13.1212 15.509 13.0202 15.711 12.8182C15.9265 12.6162 16.0342 12.2594 16.0342 11.7476C16.0342 11.2628 15.9265 10.8386 15.711 10.475C15.4955 10.098 15.2262 9.74784 14.903 9.42464C14.5798 9.08797 14.2297 8.75804 13.8526 8.43484C13.489 8.09818 13.1456 7.73458 12.8224 7.34404C12.4992 6.95351 12.2299 6.50911 12.0144 6.01084C11.7989 5.51258 11.6912 4.92678 11.6912 4.25344Z" fill="#E74214"/>
<path d="M21.2463 0.859841V11.7678C21.2463 12.2796 21.3473 12.6364 21.5493 12.8384C21.7647 13.0404 22.0475 13.1414 22.3977 13.1414C22.7478 13.1414 23.0239 13.0404 23.2259 12.8384C23.4413 12.6364 23.5491 12.2796 23.5491 11.7678V0.859841H25.6499V11.6264C25.6499 12.7711 25.3671 13.6532 24.8015 14.2726C24.2493 14.8786 23.4279 15.1816 22.3371 15.1816C21.2463 15.1816 20.4181 14.8786 19.8525 14.2726C19.3003 13.6532 19.0243 12.7711 19.0243 11.6264V0.859841H21.2463Z" fill="#E74214"/>
<path d="M33.9609 14.9998H31.7187L31.3349 12.4344H28.6079L28.2241 14.9998H26.1839L28.4463 0.859841H31.6985L33.9609 14.9998ZM28.8907 10.5154H31.0319L29.9613 3.36464L28.8907 10.5154Z" fill="#E74214"/>
<path d="M34.5917 0.859841H36.8137V12.9798H40.4699V14.9998H34.5917V0.859841Z" fill="#E74214"/>
</svg>
